<?xml version="1.0" standalone="no"?>
<!DOCTYPE svg PUBLIC "-//W3C//DTD SVG 20010904//EN"
 "http://www.w3.org/TR/2001/REC-SVG-20010904/DTD/svg10.dtd">
<svg version="1.0" xmlns="http://www.w3.org/2000/svg"
 width="443.000000pt" height="85.000000pt" viewBox="0 0 763.000000 91.000000"
 preserveAspectRatio="xMidYMid meet">

<g transform="translate(0.000000,91.000000) scale(0.100000,-0.100000)"
fill="#000000" stroke="none">
<path d="M865 797 c-58 -33 -80 -82 -131 -297 -41 -171 -44 -194 -31 -208 21
-20 53 -10 110 33 46 35 47 36 47 12 0 -29 29 -57 59 -57 30 0 80 24 122 59
46 39 31 49 -24 17 -69 -41 -97 -33 -97 29 0 19 13 31 59 55 102 54 140 111
100 151 -26 26 -73 22 -117 -10 -33 -23 -87 -120 -97 -173 -4 -21 -10 -36 -14
-35 -3 1 -25 -12 -49 -27 -23 -16 -45 -26 -48 -23 -7 6 77 371 95 420 6 15 16
27 23 28 7 1 36 2 63 3 43 1 50 4 50 21 0 31 -68 32 -120 2z m163 -229 c27
-27 2 -67 -71 -112 l-29 -18 7 34 c10 45 31 85 52 97 23 13 27 13 41 -1z"/>
<path d="M1328 800 c-63 -34 -78 -68 -133 -294 l-52 -211 25 -3 c31 -4 36 4
52 89 7 38 16 69 19 69 12 -1 40 -48 70 -120 59 -138 108 -190 182 -190 49 0
91 33 87 69 -4 36 -43 37 -43 1 0 -34 -12 -50 -38 -50 -41 0 -69 32 -117 134
-26 55 -58 112 -73 126 -28 27 -27 40 5 40 35 0 88 32 104 62 45 87 -49 116
-128 40 -34 -31 -34 -25 -7 88 27 116 34 125 101 125 46 0 53 3 53 20 0 28
-58 31 -107 5z m47 -259 c0 -31 -41 -61 -93 -68 -56 -8 -56 14 1 61 50 43 92
46 92 7z"/>
<path d="M2755 806 c-45 -19 -92 -78 -111 -140 -16 -52 -19 -54 -58 -60 -103
-17 -221 -222 -176 -307 19 -35 77 -22 133 30 l29 26 -7 -37 c-7 -35 -6 -38
17 -38 23 0 111 51 124 71 8 14 -12 11 -45 -8 -16 -10 -33 -15 -36 -11 -8 8
86 405 101 426 8 11 26 15 66 13 44 -1 57 2 62 14 3 9 4 21 0 26 -8 13 -64 10
-99 -5z m-152 -242 c29 -11 -20 -172 -64 -209 -57 -47 -89 -21 -76 60 16 99
84 171 140 149z"/>
<path d="M580 760 c-8 -4 -42 -11 -75 -14 -88 -10 -120 -23 -155 -62 -32 -37
-40 -83 -17 -102 21 -18 41 2 33 33 -15 58 19 88 114 101 60 8 61 12 -6 -76
-22 -30 -80 -113 -127 -185 -109 -165 -147 -203 -207 -207 -49 -3 -69 -31 -30
-43 57 -18 116 26 200 151 l51 74 68 0 68 0 -8 -47 c-4 -27 -10 -60 -14 -74
l-6 -26 75 -1 c45 -1 76 2 76 8 0 6 -15 10 -34 10 -19 0 -37 4 -40 8 -5 9 16
199 39 356 8 55 14 101 12 102 -1 1 -9 -1 -17 -6z m-65 -196 c-9 -54 -18 -100
-20 -102 -1 -2 -27 -2 -57 0 l-55 3 71 102 c39 56 72 100 74 99 1 -2 -5 -48
-13 -102z"/>
<path d="M3715 731 c-76 -35 -107 -88 -155 -272 -30 -116 -45 -143 -86 -153
-50 -13 -21 -25 59 -25 45 1 121 -2 167 -6 96 -8 130 1 156 39 20 32 12 79
-14 74 -12 -3 -16 -12 -15 -35 4 -48 -16 -58 -86 -43 -32 6 -83 10 -114 9 -48
-3 -56 -2 -51 11 4 8 24 73 44 145 42 149 59 191 89 223 27 27 45 28 78 2 32
-25 53 -26 53 -1 0 23 -36 51 -65 51 -11 0 -38 -9 -60 -19z"/>
<path d="M2923 575 c-54 -56 -58 -55 -37 13 11 35 -63 15 -113 -31 -33 -30
-28 -41 7 -16 16 13 33 19 37 15 6 -5 -38 -208 -55 -253 -3 -9 6 -13 25 -13
29 0 30 2 48 81 24 104 60 160 123 189 54 25 65 39 50 57 -17 21 -29 15 -85
-42z"/>
<path d="M1985 610 c-3 -5 -22 -10 -41 -10 -54 0 -95 -22 -146 -79 -87 -97
-107 -241 -32 -241 31 0 61 15 97 49 l29 26 -8 -39 -7 -39 37 6 c40 6 120 63
110 78 -3 5 -17 0 -31 -11 -39 -30 -54 -26 -47 13 5 27 45 186 61 240 6 18
-12 24 -22 7z m-48 -67 c-33 -122 -49 -161 -76 -187 -19 -18 -37 -27 -52 -24
-61 8 -15 190 55 218 11 5 34 9 49 9 22 1 27 -3 24 -16z"/>
<path d="M3245 610 c-3 -5 -22 -10 -41 -10 -54 0 -95 -22 -146 -79 -87 -97
-107 -241 -32 -241 31 0 61 15 97 49 l29 26 -8 -39 -7 -39 37 6 c40 6 120 63
110 78 -3 5 -17 0 -31 -11 -39 -30 -54 -26 -47 13 5 27 45 186 61 240 6 18
-12 24 -22 7z m-48 -67 c-33 -122 -49 -161 -76 -187 -19 -18 -37 -27 -52 -24
-61 8 -15 190 55 218 11 5 34 9 49 9 22 1 27 -3 24 -16z"/>
<path d="M4185 610 c-3 -5 -22 -10 -41 -10 -54 0 -95 -22 -146 -79 -87 -97
-107 -241 -32 -241 31 0 61 15 97 49 l29 26 -8 -39 -7 -39 37 6 c40 6 120 63
110 78 -3 5 -17 0 -31 -11 -39 -30 -54 -26 -47 13 5 27 45 186 61 240 6 18
-12 24 -22 7z m-48 -67 c-33 -122 -49 -161 -76 -187 -19 -18 -37 -27 -52 -24
-61 8 -15 190 55 218 11 5 34 9 49 9 22 1 27 -3 24 -16z"/>
<path d="M4875 610 c-3 -5 -22 -10 -41 -10 -54 0 -95 -22 -146 -79 -72 -80
-101 -194 -58 -224 20 -14 19 -15 -24 -41 -75 -44 -88 -96 -34 -141 29 -24 38
-27 90 -23 37 3 68 11 85 24 52 39 64 65 73 165 5 52 24 149 43 217 18 67 30
122 26 122 -4 0 -11 -4 -14 -10z m-53 -55 c3 -3 -5 -43 -18 -88 -17 -63 -30
-89 -54 -110 -46 -41 -74 -34 -78 20 -3 45 28 131 56 156 23 21 82 34 94 22z
m-56 -310 c-9 -57 -40 -104 -81 -121 -58 -24 -112 12 -98 66 3 13 42 49 92 86
85 62 86 63 89 36 2 -14 1 -44 -2 -67z"/>
<path d="M5521 606 c-10 -12 -10 -23 0 -50 11 -32 10 -41 -11 -86 -13 -28 -48
-74 -79 -103 l-55 -52 -9 45 c-15 81 6 163 55 216 11 12 15 24 11 27 -18 11
-148 -13 -173 -32 -29 -21 -36 -76 -10 -76 10 0 14 8 12 27 -3 31 20 48 67 48
l30 0 -24 -36 c-34 -50 -40 -96 -26 -184 7 -41 15 -77 17 -79 9 -9 61 27 123
84 72 67 111 137 111 201 0 48 -20 73 -39 50z"/>
<path d="M5835 610 c-3 -5 -22 -10 -41 -10 -54 0 -95 -22 -146 -79 -87 -97
-107 -241 -32 -241 31 0 61 15 97 49 l29 26 -8 -39 -7 -39 37 6 c40 6 120 63
110 78 -3 5 -17 0 -31 -11 -39 -30 -54 -26 -47 13 5 27 45 186 61 240 6 18
-12 24 -22 7z m-48 -67 c-33 -122 -49 -161 -76 -187 -19 -18 -37 -27 -52 -24
-61 8 -15 190 55 218 11 5 34 9 49 9 22 1 27 -3 24 -16z"/>
<path d="M6475 610 c-3 -5 -22 -10 -41 -10 -54 0 -95 -22 -146 -79 -87 -97
-107 -241 -32 -241 31 0 61 15 97 49 l29 26 -8 -39 -7 -39 37 6 c40 6 120 63
110 78 -3 5 -17 0 -31 -11 -39 -30 -54 -26 -47 13 5 27 45 186 61 240 6 18
-12 24 -22 7z m-48 -67 c-33 -122 -49 -161 -76 -187 -19 -18 -37 -27 -52 -24
-61 8 -15 190 55 218 11 5 34 9 49 9 22 1 27 -3 24 -16z"/>
<path d="M1595 601 c-28 -12 -52 -41 -59 -71 -7 -28 11 -67 58 -125 25 -31 28
-41 20 -63 -11 -32 -57 -52 -82 -36 -9 6 -18 23 -20 38 -3 21 -8 27 -25 24
-26 -4 -33 -35 -14 -62 9 -12 30 -20 63 -23 64 -6 115 25 128 79 10 39 1 58
-65 140 -45 56 5 106 57 57 35 -33 70 -10 45 29 -10 17 -79 25 -106 13z"/>
<path d="M2125 594 c-35 -18 -75 -54 -75 -66 0 -5 13 0 29 11 16 12 34 21 39
21 10 0 -14 -123 -42 -222 l-14 -48 29 0 c30 0 33 5 59 125 6 27 22 64 36 82
29 38 82 69 95 56 5 -5 -1 -45 -15 -93 -36 -126 -39 -149 -26 -165 7 -8 20
-15 29 -15 23 0 101 60 101 78 0 8 -12 4 -33 -12 -19 -15 -37 -26 -40 -26 -13
0 -7 36 25 143 24 83 29 113 21 125 -16 25 -61 17 -107 -19 -23 -18 -46 -36
-53 -41 -9 -7 -9 -1 -2 26 16 57 -1 69 -56 40z"/>
<path d="M4335 594 c-35 -18 -75 -54 -75 -66 0 -5 13 0 29 11 16 12 34 21 39
21 10 0 -14 -123 -42 -222 l-14 -48 29 0 c30 0 33 5 59 125 6 27 22 64 36 82
29 38 82 69 95 56 5 -5 -1 -45 -15 -93 -36 -126 -39 -149 -26 -165 7 -8 20
-15 29 -15 23 0 101 60 101 78 0 8 -12 4 -33 -12 -19 -15 -37 -26 -40 -26 -13
0 -7 36 25 143 24 83 29 113 21 125 -16 25 -61 17 -107 -19 -23 -18 -46 -36
-53 -41 -9 -7 -9 -1 -2 26 16 57 -1 69 -56 40z"/>
<path d="M5055 596 c-37 -16 -92 -77 -111 -122 -8 -19 -14 -58 -14 -89 0 -46
4 -60 25 -80 44 -45 125 -27 184 40 42 48 61 93 61 145 0 95 -63 142 -145 106z
m59 -35 c20 -22 24 -129 6 -176 -28 -75 -88 -98 -115 -45 -30 58 -13 164 35
212 33 33 51 35 74 9z"/>
<path d="M5943 582 c-50 -31 -61 -62 -14 -38 24 13 31 13 49 0 26 -18 49 -88
61 -182 12 -94 0 -136 -51 -185 -38 -36 -42 -38 -101 -35 -57 3 -62 1 -65 -19
-4 -30 36 -40 90 -24 87 26 199 175 253 334 32 96 32 172 0 172 -18 0 -20 -7
-21 -85 0 -70 -5 -95 -27 -140 l-26 -55 0 35 c-2 92 -66 250 -101 250 -3 0
-24 -13 -47 -28z"/>
</g>
</svg>
