<?xml version="1.0" standalone="no"?>
<!DOCTYPE svg PUBLIC "-//W3C//DTD SVG 20010904//EN"
 "http://www.w3.org/TR/2001/REC-SVG-20010904/DTD/svg10.dtd">
<svg version="1.0" xmlns="http://www.w3.org/2000/svg"
 width="806.000000pt" height="100.000000pt" viewBox="0 0 906.000000 160.000000"
 preserveAspectRatio="xMidYMid meet">

<g transform="translate(0.000000,160.000000) scale(0.100000,-0.100000)"
fill="#000000" stroke="none">
<path d="M1680 1449 c-174 -45 -294 -122 -558 -353 -62 -54 -114 -97 -116 -95
-2 2 -11 19 -21 38 -55 110 -134 174 -228 187 -56 8 -103 -7 -146 -48 -53 -50
-76 -110 -75 -198 1 -91 26 -162 85 -239 38 -50 39 -54 24 -72 -28 -30 -176
-98 -240 -110 -33 -6 -79 -8 -103 -5 -46 6 -111 36 -131 60 -12 14 -10 15 17
10 76 -15 100 98 26 126 -66 26 -129 -49 -104 -125 33 -100 176 -146 329 -106
90 23 136 44 218 98 l52 35 35 -21 c19 -12 58 -30 86 -39 l51 -18 -20 -26 -21
-26 57 -7 c53 -6 59 -5 78 18 13 16 39 29 75 37 60 14 105 33 134 59 18 15 18
15 10 -9 -16 -48 -10 -81 17 -102 23 -18 31 -19 61 -9 19 6 56 25 81 41 43 27
47 28 47 11 0 -23 45 -61 71 -61 62 0 177 64 277 154 l57 51 -42 -50 c-23 -27
-60 -68 -82 -90 -23 -21 -41 -43 -41 -47 0 -4 24 -8 54 -8 l54 0 63 70 c51 58
67 70 92 70 l30 0 -23 -25 c-30 -32 -30 -83 1 -108 27 -22 65 -16 125 18 l41
24 20 -27 c30 -40 90 -36 177 11 57 32 66 34 66 19 0 -22 40 -62 62 -62 9 0
42 14 73 30 66 35 65 34 65 17 0 -27 37 -50 67 -42 32 8 102 56 183 125 66 57
158 120 173 120 7 0 -42 -54 -108 -120 l-120 -120 59 0 c57 0 60 1 124 58 118
104 167 143 205 163 62 32 62 17 0 -35 -68 -57 -93 -91 -93 -128 0 -27 30 -68
49 -68 19 0 94 31 121 50 34 24 40 25 40 5 0 -8 10 -25 21 -36 27 -27 75 -21
130 16 45 29 49 30 49 10 0 -8 11 -22 25 -31 35 -23 75 -7 171 71 43 35 106
86 139 112 l60 47 -52 -57 c-64 -70 -82 -117 -59 -152 9 -14 27 -27 40 -31 27
-7 86 16 134 52 18 14 34 24 36 23 1 -2 6 -17 12 -34 15 -48 51 -54 120 -19
33 16 62 30 65 32 4 2 9 -9 13 -22 8 -34 45 -42 87 -20 39 20 136 92 162 121
16 18 16 22 2 33 -17 14 -17 14 -125 -70 -120 -92 -103 -65 70 113 l85 87 -61
0 c-33 0 -65 -5 -71 -11 -8 -8 -13 -8 -17 0 -12 19 -83 12 -149 -14 -37 -15
-95 -51 -138 -87 -79 -65 -186 -138 -202 -138 -5 0 32 43 83 96 l92 95 -28 30
c-15 16 -35 29 -44 29 -9 0 -22 11 -28 25 -23 50 -86 24 -87 -36 0 -24 -17
-42 -107 -116 -111 -92 -173 -134 -167 -114 3 7 137 145 299 307 l295 294 -55
0 -55 0 -196 -196 c-170 -170 -197 -193 -208 -180 -17 21 -65 20 -127 -1 -62
-21 -115 -54 -179 -111 -62 -55 -122 -97 -155 -107 -19 -5 -10 6 33 45 32 29
64 65 72 81 18 34 19 81 3 97 -21 21 -79 13 -134 -18 l-52 -29 -6 25 c-4 14
-18 29 -33 35 -36 13 -104 -21 -203 -101 -111 -91 -191 -150 -202 -150 -5 0
43 55 107 123 l117 122 -52 3 c-28 2 -58 -2 -65 -8 -10 -8 -15 -8 -20 1 -21
34 -207 -23 -271 -82 -21 -20 -21 -20 -28 3 -13 50 -7 99 15 117 16 12 20 23
15 39 -4 12 -10 22 -14 22 -4 0 -84 -65 -179 -143 -95 -79 -190 -153 -213
-166 l-40 -22 21 35 c12 21 18 43 14 55 -4 15 1 24 22 35 16 8 41 27 57 43 19
18 30 24 33 16 7 -20 51 -15 63 7 16 30 -4 60 -40 60 -42 0 -77 -16 -129 -59
-44 -36 -81 -57 -81 -45 0 3 26 35 58 71 47 53 74 74 152 113 214 107 380 244
380 313 0 40 -25 67 -64 67 -62 0 -155 -69 -346 -255 -69 -67 -150 -138 -180
-157 -50 -31 -207 -156 -270 -215 -31 -29 -156 -93 -181 -93 -25 0 -24 19 4
51 14 17 48 34 95 49 108 34 169 99 130 138 -35 35 -155 -12 -263 -105 -105
-89 -195 -146 -195 -123 0 11 69 98 158 198 53 59 79 79 136 106 208 96 426
272 426 343 0 50 -57 67 -127 38 -71 -30 -289 -212 -398 -334 -22 -23 -62 -58
-90 -76 -27 -18 -92 -69 -143 -113 -80 -70 -154 -114 -167 -100 -5 5 117 159
251 316 122 142 267 291 424 435 l105 96 -35 0 c-19 0 -69 -9 -110 -20z m-100
-106 c-91 -77 -391 -382 -474 -483 -43 -52 -82 -99 -86 -104 -5 -4 -4 11 1 35
6 24 9 68 8 98 l-3 55 75 69 c175 165 354 299 471 352 29 13 55 24 58 24 3 0
-20 -20 -50 -46z m890 -138 c0 -39 -129 -144 -285 -235 l-40 -23 45 47 c74 79
176 176 211 202 37 27 69 31 69 9z m-550 -7 c0 -32 -174 -172 -295 -238 l-60
-33 110 112 c61 62 130 125 154 141 45 31 91 39 91 18z m-1093 -59 c46 -22 88
-69 123 -139 l23 -45 -59 -53 c-211 -193 -202 -187 -225 -166 -66 60 -115 182
-103 260 9 60 44 115 89 141 50 28 96 29 152 2z m133 -393 c-12 -39 -29 -84
-37 -99 -17 -33 -32 -32 -123 9 l-54 25 114 108 115 108 3 -39 c2 -22 -6 -72
-18 -112z m1334 -62 c-26 -51 -92 -124 -113 -124 -5 0 -7 9 -4 20 3 11 0 26
-6 34 -10 12 2 26 66 79 43 36 80 61 81 56 2 -6 -9 -35 -24 -65z m347 47 c-25
-45 -199 -180 -233 -181 -34 0 60 103 145 160 65 44 105 53 88 21z m895 -8
c-8 -16 -32 -42 -53 -60 -161 -128 -240 -153 -136 -42 53 57 156 129 184 129
18 0 18 -2 5 -27z m705 8 c-21 -39 -203 -181 -233 -181 -32 0 47 91 136 157
62 46 115 59 97 24z m-2591 5 c0 -2 -7 -7 -16 -10 -8 -3 -12 -2 -9 4 6 10 25
14 25 6z"/>
<path d="M5340 1441 c-252 -54 -409 -188 -410 -349 0 -96 51 -167 144 -199 54
-18 208 -24 279 -9 l39 7 -33 -48 c-50 -73 -177 -194 -237 -226 l-53 -29 -67
16 c-157 38 -311 38 -354 -1 -28 -25 -20 -65 17 -82 37 -18 214 -19 302 -2 52
10 76 9 137 -4 156 -32 285 -14 451 61 6 2 15 -10 20 -28 16 -53 51 -58 126
-20 34 18 63 31 63 30 6 -18 26 -44 39 -52 25 -16 87 19 197 109 99 81 176
135 194 135 6 0 -43 -54 -109 -120 l-120 -120 59 0 c59 0 60 0 135 68 101 91
159 136 198 156 58 29 55 17 -8 -39 -72 -62 -88 -87 -89 -132 0 -24 7 -37 25
-49 24 -15 29 -15 73 1 26 10 59 26 74 36 31 23 38 23 38 5 0 -20 48 -56 73
-56 35 0 1 -25 -61 -45 -75 -24 -179 -83 -228 -130 -51 -48 -64 -87 -39 -115
45 -50 148 -1 303 145 61 58 117 105 124 105 20 0 133 56 182 90 l44 30 11
-30 c22 -65 93 -58 195 19 46 35 71 47 87 44 25 -4 35 2 154 94 92 72 105 67
23 -8 -80 -71 -102 -121 -74 -163 27 -42 57 -42 139 -4 39 20 83 44 96 55 33
27 88 11 97 -30 8 -37 46 -61 81 -52 16 3 46 18 68 32 28 19 40 22 43 13 10
-30 44 -52 70 -45 35 8 119 65 179 122 62 57 111 97 143 113 14 7 -3 -14 -37
-46 -84 -80 -103 -134 -62 -175 20 -20 35 -21 86 -2 17 6 17 6 0 -14 -10 -11
-46 -31 -80 -43 -162 -58 -290 -162 -272 -220 8 -26 48 -42 83 -34 73 18 196
107 290 208 31 34 61 56 91 66 24 8 75 33 115 56 l71 42 12 -29 c7 -16 24 -34
39 -41 23 -11 33 -9 88 20 38 20 62 28 65 21 9 -29 43 -51 69 -44 30 7 105 56
167 110 38 32 39 35 23 51 -16 16 -21 14 -85 -38 -71 -58 -113 -84 -113 -71 0
4 53 61 117 125 l118 118 -62 0 c-34 0 -65 -5 -68 -10 -5 -8 -11 -7 -21 1 -40
33 -194 -21 -294 -102 -78 -64 -179 -134 -184 -128 -3 3 47 60 110 127 l116
122 -66 0 c-36 0 -66 -4 -66 -9 0 -4 -48 -51 -106 -102 -161 -144 -249 -192
-121 -67 43 43 76 84 79 99 7 39 -8 68 -39 75 -38 10 -134 -41 -206 -110 -95
-91 -187 -160 -187 -140 0 4 53 60 117 126 l117 118 -61 0 c-34 0 -65 -5 -68
-10 -5 -8 -11 -7 -21 1 -39 32 -181 -16 -282 -96 -74 -57 -86 -57 -34 -1 58
63 68 116 23 116 -23 0 -88 -71 -107 -116 -8 -19 -35 -50 -62 -69 -45 -33
-142 -77 -151 -69 -3 2 25 33 62 69 71 69 90 113 68 161 -20 45 -79 29 -179
-49 -110 -87 -104 -84 -74 -28 26 47 26 49 8 76 -16 25 -22 27 -66 23 -70 -7
-145 -48 -224 -123 -60 -57 -170 -135 -191 -135 -4 0 50 54 119 121 69 67 126
125 126 130 0 14 -104 11 -118 -3 -9 -9 -15 -9 -24 0 -18 18 -71 14 -135 -10
-74 -27 -121 -57 -206 -130 -63 -54 -144 -105 -153 -95 -2 2 19 23 47 47 62
52 89 94 89 137 0 60 -63 70 -146 23 l-52 -29 -6 25 c-4 14 -18 29 -33 35 -37
14 -105 -21 -218 -112 -222 -179 -237 -182 -81 -16 l115 122 -50 3 c-28 2 -57
-2 -64 -8 -9 -8 -15 -8 -20 0 -10 17 -91 11 -145 -10 -57 -22 -102 -51 -180
-115 -75 -61 -145 -93 -232 -103 -73 -9 -188 -5 -188 7 0 3 23 19 51 34 70 40
172 137 241 232 l58 79 103 36 c193 69 347 159 440 259 82 87 96 157 40 201
-108 85 -419 -110 -626 -392 l-57 -76 -67 -9 c-90 -11 -223 -8 -265 6 -19 6
-50 27 -69 47 -30 31 -34 41 -34 87 1 66 47 151 109 201 102 84 276 135 459
136 l107 0 0 25 0 25 -117 -1 c-73 0 -150 -7 -203 -18z m739 -75 c7 -8 9 -25
5 -43 -10 -42 -140 -164 -230 -217 -107 -63 -284 -136 -284 -118 0 4 29 46 65
93 72 96 186 207 253 246 86 51 168 67 191 39z m701 -636 c-29 -41 -120 -119
-178 -152 -91 -53 -97 -28 -14 52 72 70 159 130 190 130 l23 0 -21 -30z m374
-1 c-34 -66 -118 -142 -186 -168 -48 -18 -40 6 24 75 72 77 133 124 160 124
18 0 18 -2 2 -31z m-1284 2 c-26 -50 -220 -195 -237 -177 -10 10 25 53 87 108
66 58 115 88 143 88 14 0 16 -4 7 -19z m2030 7 c0 -17 -92 -101 -162 -148
-105 -70 -113 -42 -14 53 85 83 176 132 176 95z m880 0 c0 -27 -173 -165 -227
-182 -38 -12 -27 10 38 75 90 90 189 146 189 107z m-3927 -164 c63 -9 49 -24
-22 -24 -83 0 -155 11 -139 21 16 10 97 11 161 3z m3167 -230 c-49 -50 -134
-103 -146 -91 -9 9 8 35 39 58 30 22 146 88 157 89 2 0 -20 -25 -50 -56z
m-1625 -14 c-59 -60 -115 -95 -138 -87 -17 7 72 86 135 119 29 15 55 28 58 28
2 0 -22 -27 -55 -60z"/>
</g>
</svg>
