<?xml version="1.0" standalone="no"?>
<!DOCTYPE svg PUBLIC "-//W3C//DTD SVG 20010904//EN"
 "http://www.w3.org/TR/2001/REC-SVG-20010904/DTD/svg10.dtd">
<svg version="1.0" xmlns="http://www.w3.org/2000/svg"
 width="443.000000pt" height="85.000000pt" viewBox="0 0 1102.000000 140.000000"
 preserveAspectRatio="xMidYMid meet">

<g transform="translate(0.000000,140.000000) scale(0.100000,-0.100000)"
fill="#000000" stroke="none">
<path d="M1713 1284 c3 -4 -24 -28 -61 -54 -151 -107 -415 -373 -605 -610 -55
-69 -102 -127 -104 -130 -2 -2 -1 4 2 15 3 11 -3 3 -15 -17 -15 -29 -27 -38
-48 -39 -23 -2 -24 -2 -4 -6 26 -5 28 -16 7 -33 -23 -19 -18 -30 16 -30 21 0
37 8 51 25 13 17 30 25 51 26 32 1 32 1 5 8 l-28 6 62 80 c168 218 399 477
552 617 182 167 165 148 137 148 -14 0 -21 -3 -18 -6z"/>
<path d="M5355 1275 c-309 -57 -489 -246 -404 -423 25 -51 80 -91 135 -98 37
-4 36 -4 -9 9 -56 17 -112 66 -128 114 -34 104 71 257 224 328 101 46 193 67
332 75 l120 7 -100 1 c-55 0 -131 -6 -170 -13z"/>
<path d="M6003 1253 c9 -2 23 -2 30 0 6 3 -1 5 -18 5 -16 0 -22 -2 -12 -5z"/>
<path d="M5958 1243 c7 -3 16 -2 19 1 4 3 -2 6 -13 5 -11 0 -14 -3 -6 -6z"/>
<path d="M6051 1247 c2 -1 13 -9 24 -17 19 -14 19 -14 6 3 -7 9 -18 17 -24 17
-6 0 -8 -1 -6 -3z"/>
<path d="M5857 1202 c-170 -93 -283 -205 -438 -433 -113 -167 -204 -267 -289
-317 -30 -18 -44 -30 -30 -26 39 10 80 33 145 79 73 52 113 94 196 205 42 56
70 85 82 84 12 -1 13 -1 2 3 -22 7 -20 13 26 79 110 157 221 266 336 331 32
18 54 33 48 33 -5 0 -40 -17 -78 -38z"/>
<path d="M6091 1189 c-1 -34 -41 -93 -100 -149 -26 -25 -38 -38 -27 -30 81 57
141 141 133 183 -4 19 -4 18 -6 -4z"/>
<path d="M2385 1079 c-49 -26 -148 -104 -195 -154 -45 -48 -240 -226 -266
-243 -16 -10 -15 -11 6 -1 15 7 -14 -30 -70 -91 -140 -151 -190 -207 -190
-214 0 -3 11 -6 24 -6 17 0 44 22 94 78 l70 77 46 -3 c25 -2 46 -7 46 -11 0
-4 -13 -23 -30 -41 -33 -37 -37 -57 -17 -85 19 -25 67 -14 128 30 27 19 51 35
54 35 3 0 5 -14 5 -30 0 -67 101 -60 201 14 50 37 50 37 52 152 2 66 6 86 22
105 11 12 -19 -10 -67 -50 -49 -40 -88 -75 -88 -78 0 -3 25 16 55 42 31 26 59
45 62 41 4 -3 1 -30 -6 -58 -29 -126 -163 -250 -210 -194 -9 11 -7 15 10 19
30 8 21 43 -11 39 l-24 -2 25 26 c15 17 3 11 -30 -15 -120 -93 -205 -111 -135
-28 20 24 25 38 21 63 -5 28 -2 34 22 44 16 6 45 29 67 51 38 39 79 54 68 24
-4 -10 0 -15 11 -15 25 0 14 34 -12 38 -28 4 -71 -18 -128 -68 -37 -32 -54
-40 -86 -40 -29 0 -38 3 -33 13 19 31 158 177 174 182 11 3 17 12 14 18 -6 16
256 281 315 318 51 33 73 36 91 14 40 -48 -93 -170 -321 -294 -77 -42 -89 -57
-16 -20 149 76 311 199 342 260 19 35 19 44 -1 63 -21 21 -42 20 -89 -5z"/>
<path d="M1893 1083 c34 -5 43 -23 27 -55 -11 -22 -10 -22 4 -4 28 35 12 67
-33 65 -25 -2 -25 -2 2 -6z"/>
<path d="M1279 1063 c-13 -16 -12 -17 4 -4 16 13 21 21 13 21 -2 0 -10 -8 -17
-17z"/>
<path d="M1815 1063 c-52 -27 -206 -157 -324 -272 -62 -62 -122 -116 -133
-122 -11 -6 -17 -13 -14 -16 3 -3 -17 -31 -45 -62 -58 -64 -109 -147 -109
-176 0 -29 19 -45 50 -44 24 2 24 2 2 6 -53 10 -39 39 87 183 179 205 444 471
496 498 22 12 36 21 30 21 -5 0 -23 -7 -40 -16z"/>
<path d="M645 1037 c-23 -13 -52 -42 -69 -70 -25 -41 -30 -59 -32 -130 l-3
-82 8 65 c13 111 59 177 139 200 52 14 81 12 127 -9 48 -22 94 -69 129 -131
14 -25 26 -40 26 -34 0 21 -82 134 -116 160 -72 56 -146 67 -209 31z"/>
<path d="M1224 1018 l-19 -23 23 19 c21 18 27 26 19 26 -2 0 -12 -10 -23 -22z"/>
<path d="M1874 968 l-29 -33 33 29 c30 28 37 36 29 36 -2 0 -16 -15 -33 -32z"/>
<path d="M3770 785 c-191 -191 -206 -203 -215 -182 -25 55 -171 3 -290 -103
-104 -92 -192 -138 -210 -110 -5 8 20 39 67 84 75 71 94 107 76 140 -5 9 -20
16 -34 16 -24 0 -84 -25 -84 -36 0 -2 13 2 30 11 16 8 38 15 49 15 44 0 33
-25 -43 -94 -81 -76 -103 -119 -72 -145 23 -19 69 -5 141 44 l64 44 -6 -34
c-12 -75 44 -85 136 -24 33 22 63 45 67 50 3 6 -24 -10 -61 -35 -77 -54 -125
-62 -125 -22 0 43 171 196 237 212 63 16 70 -28 14 -89 -71 -78 -91 -142 -47
-153 23 -5 79 16 90 35 4 5 -11 0 -32 -12 -38 -21 -72 -19 -72 4 0 7 128 141
285 298 157 157 285 287 285 288 0 2 -10 3 -22 3 -15 0 -85 -63 -228 -205z"/>
<path d="M5900 969 c-22 -18 -22 -19 -3 -10 12 6 25 16 28 21 9 15 3 12 -25
-11z"/>
<path d="M1159 963 c-13 -16 -12 -17 4 -4 9 7 17 15 17 17 0 8 -8 3 -21 -13z"/>
<path d="M1042 858 c-43 -44 -54 -50 -62 -38 -7 10 -8 4 -4 -20 8 -41 14 -52
14 -24 0 10 26 44 57 76 32 32 55 58 53 58 -3 0 -29 -24 -58 -52z"/>
<path d="M5700 860 c-8 -5 -10 -10 -5 -10 6 0 17 5 25 10 8 5 11 10 5 10 -5 0
-17 -5 -25 -10z"/>
<path d="M5378 763 c7 -3 16 -2 19 1 4 3 -2 6 -13 5 -11 0 -14 -3 -6 -6z"/>
<path d="M5313 753 c9 -2 25 -2 35 0 9 3 1 5 -18 5 -19 0 -27 -2 -17 -5z"/>
<path d="M993 715 c0 -22 2 -30 4 -17 2 12 2 30 0 40 -3 9 -5 -1 -4 -23z"/>
<path d="M5168 743 c23 -2 61 -2 85 0 23 2 4 4 -43 4 -47 0 -66 -2 -42 -4z"/>
<path d="M845 668 l-50 -53 53 50 c48 46 57 55 49 55 -1 0 -25 -24 -52 -52z"/>
<path d="M3783 664 c-3 -9 -1 -24 5 -34 8 -13 7 -22 -6 -36 -16 -18 -16 -18 3
-2 11 9 34 18 50 21 29 4 29 4 -4 6 -32 1 -33 2 -16 15 11 8 16 19 12 30 -8
21 -36 21 -44 0z"/>
<path d="M580 661 c0 -6 4 -13 10 -16 6 -3 7 1 4 9 -7 18 -14 21 -14 7z"/>
<path d="M982 650 c0 -14 2 -19 5 -12 2 6 2 18 0 25 -3 6 -5 1 -5 -13z"/>
<path d="M1238 575 c-47 -41 -89 -79 -93 -85 -6 -9 74 55 194 156 2 2 0 4 -5
4 -5 0 -48 -34 -96 -75z"/>
<path d="M1844 628 l-19 -23 23 19 c21 18 27 26 19 26 -2 0 -12 -10 -23 -22z"/>
<path d="M6695 621 c-85 -31 -133 -59 -202 -122 -98 -89 -190 -137 -208 -109
-5 8 20 39 67 84 75 71 94 107 76 140 -5 9 -20 16 -34 16 -24 0 -84 -25 -84
-36 0 -2 13 2 30 11 16 8 38 15 49 15 44 0 33 -25 -43 -94 -81 -76 -103 -119
-72 -145 23 -19 69 -5 140 44 l62 42 -4 -29 c-7 -50 45 -86 87 -59 8 5 0 8
-25 7 -58 -2 -55 23 8 90 64 68 160 139 208 152 19 6 26 10 15 11 -11 0 -42
-8 -70 -18z"/>
<path d="M7059 616 c-69 -28 -101 -51 -159 -112 -25 -26 -37 -42 -27 -34 17
12 18 11 12 -13 -10 -38 2 -75 25 -82 24 -8 84 10 100 30 7 8 -4 6 -27 -6 -47
-24 -77 -21 -81 8 -4 24 103 144 172 195 72 52 118 27 79 -44 -26 -46 -20 -51
7 -5 50 81 8 108 -101 63z"/>
<path d="M7393 629 c9 -5 17 -15 17 -21 0 -6 -32 -40 -70 -77 -77 -72 -96
-114 -65 -144 20 -20 40 -21 80 -2 24 12 25 13 5 8 -40 -11 -73 -9 -77 5 -3 7
27 43 65 81 46 45 72 79 77 100 7 35 -7 61 -34 61 -14 -1 -14 -2 2 -11z"/>
<path d="M7593 607 c-17 -18 -39 -48 -48 -67 -10 -19 -27 -46 -39 -60 -11 -13
-13 -19 -4 -12 13 11 20 11 37 0 18 -11 26 -10 50 3 l28 17 -10 -27 c-5 -15
-7 -40 -3 -55 13 -52 53 -47 151 19 48 33 63 40 55 25 -6 -12 -10 -33 -8 -48
2 -20 9 -28 28 -29 25 -3 25 -3 3 7 -13 5 -23 15 -23 21 0 7 48 61 107 120
100 102 105 109 78 109 -16 0 -39 -9 -51 -21 l-22 -21 -7 22 c-6 20 -12 22
-50 18 -58 -7 -159 -56 -220 -107 -54 -45 -90 -60 -107 -43 -8 8 1 23 31 54
47 48 75 94 63 102 -5 3 -23 -9 -39 -27z m313 -1 c14 -37 -83 -135 -197 -201
-105 -60 -123 -9 -30 84 107 107 210 160 227 117z"/>
<path d="M8203 633 c29 -8 20 -24 -57 -98 -72 -68 -95 -108 -82 -140 3 -9 13
-18 21 -22 18 -6 89 23 106 44 6 7 -10 1 -35 -13 -43 -24 -76 -27 -76 -6 0 5
36 45 80 89 57 57 80 87 80 104 0 29 -17 50 -39 48 -12 -1 -12 -2 2 -6z"/>
<path d="M8399 604 c-18 -19 -32 -36 -29 -38 3 -1 -49 -59 -115 -129 -101
-107 -128 -130 -168 -143 -27 -9 -46 -18 -44 -20 2 -3 16 0 31 6 54 20 49 8
-34 -76 -110 -111 -192 -151 -220 -106 -7 10 -10 11 -7 3 6 -27 33 -35 74 -23
58 17 124 65 234 169 54 51 104 93 111 93 25 0 133 58 194 103 59 43 61 44 51
18 -5 -15 -7 -40 -3 -55 13 -52 53 -47 151 19 48 33 63 40 55 25 -6 -12 -10
-33 -8 -48 2 -20 9 -28 28 -29 25 -3 25 -3 3 7 -13 5 -23 15 -23 21 0 7 48 61
107 120 100 102 105 109 78 109 -16 0 -39 -9 -51 -21 l-22 -21 -7 22 c-17 53
-165 -4 -310 -119 -86 -69 -229 -151 -241 -138 -5 5 50 67 210 235 l50 52 -30
0 c-21 0 -40 -10 -65 -36z m377 2 c14 -37 -83 -135 -197 -201 -105 -60 -123
-9 -30 84 107 107 210 160 227 117z"/>
<path d="M600 626 c0 -2 8 -10 18 -17 15 -13 16 -12 3 4 -13 16 -21 21 -21 13z"/>
<path d="M1574 600 c-32 -16 -100 -62 -149 -102 -50 -40 -102 -81 -115 -91
-25 -18 -25 -18 5 -1 17 9 46 30 67 46 l36 28 -5 -40 c-7 -51 8 -70 56 -69 34
2 34 2 6 6 -32 5 -55 19 -55 34 0 19 73 89 94 89 14 0 17 3 8 8 -9 6 -5 15 15
34 65 61 143 98 143 67 0 -6 -15 -25 -32 -42 -18 -16 -24 -25 -13 -19 32 17
58 50 52 67 -9 23 -48 18 -113 -15z"/>
<path d="M2549 615 c-63 -23 -116 -54 -161 -92 -34 -30 -44 -46 -46 -75 -9
-98 46 -102 172 -10 40 30 47 32 37 13 -20 -36 -10 -76 19 -78 25 -3 25 -3 3
7 -13 5 -23 15 -23 21 0 7 48 61 107 120 100 102 105 109 78 109 -16 0 -39 -9
-51 -21 l-22 -21 -7 21 c-8 25 -49 27 -106 6z m97 -9 c14 -37 -83 -135 -197
-201 -105 -60 -123 -9 -30 84 107 107 210 160 227 117z"/>
<path d="M2977 614 c4 -11 -27 -49 -103 -125 l-109 -109 34 0 c27 0 45 10 90
53 31 28 79 72 106 95 28 24 37 34 21 23 -35 -26 -39 -23 -24 16 12 31 6 63
-11 63 -6 0 -8 -7 -4 -16z m3 -88 c0 -2 -8 -10 -17 -17 -16 -13 -17 -12 -4 4
13 16 21 21 21 13z"/>
<path d="M3870 618 c0 -6 -31 -44 -69 -83 -70 -72 -92 -115 -74 -144 12 -20
47 -26 70 -12 14 8 9 9 -19 4 -27 -4 -38 -2 -38 7 0 7 41 55 91 107 88 91 90
95 73 114 -19 21 -34 25 -34 7z"/>
<path d="M4149 615 c-153 -56 -235 -146 -200 -221 18 -41 65 -28 165 44 40 30
47 32 37 13 -20 -36 -10 -76 19 -78 25 -3 25 -3 3 7 -13 5 -23 15 -23 21 0 7
48 61 107 120 100 102 105 109 78 109 -16 0 -39 -9 -51 -21 l-22 -21 -7 21
c-8 25 -49 27 -106 6z m97 -9 c14 -37 -83 -135 -197 -201 -105 -60 -123 -9
-30 84 107 107 210 160 227 117z"/>
<path d="M5779 615 c-153 -56 -235 -146 -200 -221 18 -41 65 -28 165 44 40 30
47 32 37 13 -20 -36 -10 -76 19 -78 25 -3 25 -3 3 7 -13 5 -23 15 -23 21 0 7
48 61 107 120 100 102 105 109 78 109 -16 0 -39 -9 -51 -21 l-22 -21 -7 21
c-8 25 -49 27 -106 6z m97 -9 c14 -37 -83 -135 -197 -201 -105 -60 -123 -9
-30 84 107 107 210 160 227 117z"/>
<path d="M6207 614 c4 -11 -27 -49 -103 -125 l-109 -109 34 0 c27 0 45 10 90
53 31 28 79 72 106 95 28 24 37 34 21 23 -35 -26 -39 -23 -24 16 12 31 6 63
-11 63 -6 0 -8 -7 -4 -16z m3 -88 c0 -2 -8 -10 -17 -17 -16 -13 -17 -12 -4 4
13 16 21 21 21 13z"/>
<path d="M6796 613 c3 -10 -6 -33 -20 -52 -29 -39 -128 -126 -168 -147 -16 -8
-28 -17 -28 -20 0 -3 17 4 38 16 33 19 30 14 -28 -44 -35 -36 -68 -66 -72 -66
-13 0 -119 -42 -116 -46 2 -2 28 5 57 16 49 19 51 19 42 2 -15 -28 -166 -169
-201 -187 -34 -18 -81 -17 -87 2 -3 7 15 34 38 60 l42 48 -47 -47 c-50 -51
-57 -73 -25 -83 58 -19 121 18 278 163 55 51 105 92 112 92 7 0 9 3 5 7 -4 4
60 74 141 155 122 123 144 148 124 148 -14 0 -35 -10 -48 -22 -19 -18 -23 -19
-23 -5 0 9 -4 18 -9 21 -5 4 -7 -2 -5 -11z"/>
<path d="M7345 620 c-3 -6 1 -7 9 -4 18 7 21 14 7 14 -6 0 -13 -4 -16 -10z"/>
<path d="M8124 602 c-53 -36 -125 -97 -97 -83 12 6 25 16 29 22 3 6 34 29 67
50 33 21 56 39 51 39 -5 0 -27 -12 -50 -28z"/>
<path d="M764 599 c-10 -12 -32 -30 -47 -41 l-28 -20 -32 28 -32 29 29 -32
c15 -17 25 -36 22 -42 -4 -6 -5 -11 -3 -11 7 0 123 109 116 110 -3 0 -14 -9
-25 -21z"/>
<path d="M2905 610 c-3 -6 1 -7 9 -4 18 7 21 14 7 14 -6 0 -13 -4 -16 -10z"/>
<path d="M6135 610 c-3 -6 1 -7 9 -4 18 7 21 14 7 14 -6 0 -13 -4 -16 -10z"/>
<path d="M1789 583 l-24 -28 28 24 c15 14 27 26 27 28 0 8 -8 1 -31 -24z"/>
<path d="M7288 579 l-33 -31 38 27 c20 15 37 29 37 31 0 10 -12 2 -42 -27z"/>
<path d="M2859 579 l-24 -20 28 17 c15 9 27 18 27 20 0 8 -8 4 -31 -17z"/>
<path d="M6089 579 l-24 -20 28 17 c15 9 27 18 27 20 0 8 -8 4 -31 -17z"/>
<path d="M126 558 c-9 -12 -15 -36 -15 -53 2 -27 2 -27 6 -5 6 30 23 51 23 28
0 -41 72 -49 83 -9 13 53 -66 84 -97 39z"/>
<path d="M3710 539 l-45 -41 42 32 c37 27 61 51 51 50 -2 0 -23 -19 -48 -41z"/>
<path d="M8280 498 c-41 -39 -57 -57 -35 -40 38 29 124 113 115 112 -3 -1 -39
-33 -80 -72z"/>
<path d="M1715 518 l-40 -43 43 40 c39 36 47 45 39 45 -2 0 -21 -19 -42 -42z"/>
<path d="M2169 533 l-24 -28 28 24 c15 14 27 26 27 28 0 8 -8 1 -31 -24z"/>
<path d="M2804 538 l-19 -23 23 19 c12 11 22 21 22 23 0 8 -8 2 -26 -19z"/>
<path d="M6034 538 l-19 -23 23 19 c12 11 22 21 22 23 0 8 -8 2 -26 -19z"/>
<path d="M7210 519 c-28 -24 -42 -29 -67 -25 -18 2 -35 2 -37 -2 -2 -4 13 -8
33 -10 30 -2 45 4 77 32 21 20 37 35 34 35 -3 0 -21 -13 -40 -30z"/>
<path d="M2754 498 l-19 -23 23 19 c12 11 22 21 22 23 0 8 -8 2 -26 -19z"/>
<path d="M5984 498 l-19 -23 23 19 c12 11 22 21 22 23 0 8 -8 2 -26 -19z"/>
<path d="M639 493 c-13 -16 -12 -17 4 -4 9 7 17 15 17 17 0 8 -8 3 -21 -13z"/>
<path d="M3634 478 l-19 -23 23 19 c12 11 22 21 22 23 0 8 -8 2 -26 -19z"/>
<path d="M594 464 c-18 -14 -18 -15 4 -4 12 6 22 13 22 15 0 8 -5 6 -26 -11z"/>
<path d="M790 470 c8 -5 20 -10 25 -10 6 0 3 5 -5 10 -8 5 -19 10 -25 10 -5 0
-3 -5 5 -10z"/>
<path d="M1110 470 c-9 -6 -10 -10 -3 -10 6 0 15 5 18 10 8 12 4 12 -15 0z"/>
<path d="M1649 465 c-8 -8 -44 -30 -79 -50 -36 -19 -61 -35 -56 -35 15 0 125
62 142 81 20 22 15 26 -7 4z"/>
<path d="M2700 457 c-14 -12 -39 -32 -55 -45 -17 -13 -21 -19 -10 -13 21 10
104 80 95 80 -3 0 -16 -10 -30 -22z"/>
<path d="M3914 458 l-19 -23 23 19 c12 11 22 21 22 23 0 8 -8 2 -26 -19z"/>
<path d="M4300 457 c-14 -12 -39 -32 -55 -45 -17 -13 -21 -19 -10 -13 21 10
104 80 95 80 -3 0 -16 -10 -30 -22z"/>
<path d="M5549 463 c-13 -16 -12 -17 4 -4 16 13 21 21 13 21 -2 0 -10 -8 -17
-17z"/>
<path d="M5930 457 c-14 -12 -39 -32 -55 -45 -17 -13 -21 -19 -10 -13 21 10
104 80 95 80 -3 0 -16 -10 -30 -22z"/>
<path d="M7960 457 c-14 -12 -39 -32 -55 -45 -17 -13 -21 -19 -10 -13 21 10
104 80 95 80 -3 0 -16 -10 -30 -22z"/>
<path d="M8830 457 c-14 -12 -39 -32 -55 -45 -17 -13 -21 -19 -10 -13 21 10
104 80 95 80 -3 0 -16 -10 -30 -22z"/>
<path d="M1055 450 c-13 -6 -15 -9 -5 -9 8 0 22 4 30 9 18 12 2 12 -25 0z"/>
<path d="M3584 438 l-19 -23 23 19 c12 11 22 21 22 23 0 8 -8 2 -26 -19z"/>
<path d="M4662 450 c-26 -11 -39 -37 -25 -51 6 -6 9 -2 9 12 -1 31 40 41 135
35 89 -6 211 -34 203 -47 -3 -5 1 -6 9 -4 7 3 42 -1 78 -10 64 -15 226 -19
283 -6 17 3 -22 6 -85 6 -77 0 -132 6 -169 17 -123 37 -200 51 -305 54 -60 2
-120 0 -133 -6z"/>
<path d="M6829 443 c-13 -16 -12 -17 4 -4 9 7 17 15 17 17 0 8 -8 3 -21 -13z"/>
<path d="M130 445 c0 -10 93 -65 109 -65 9 1 1 7 -17 15 -18 8 -47 24 -63 35
-16 12 -29 19 -29 15z"/>
<path d="M5510 440 c-9 -6 -10 -10 -3 -10 6 0 15 5 18 10 8 12 4 12 -15 0z"/>
<path d="M530 430 c-9 -6 -10 -10 -3 -10 6 0 15 5 18 10 8 12 4 12 -15 0z"/>
<path d="M7424 424 c-18 -14 -18 -15 4 -4 12 6 22 13 22 15 0 8 -5 6 -26 -11z"/>
<path d="M480 410 c-8 -5 -10 -10 -5 -10 6 0 17 5 25 10 8 5 11 10 5 10 -5 0
-17 -5 -25 -10z"/>
<path d="M3834 404 c-18 -14 -18 -15 4 -4 12 6 22 13 22 15 0 8 -5 6 -26 -11z"/>
<path d="M6738 389 c-21 -11 -38 -22 -38 -24 0 -3 18 4 40 15 22 11 40 23 40
25 0 7 0 7 -42 -16z"/>
<path d="M5398 393 c7 -3 16 -2 19 1 4 3 -2 6 -13 5 -11 0 -14 -3 -6 -6z"/>
<path d="M408 383 c7 -3 16 -2 19 1 4 3 -2 6 -13 5 -11 0 -14 -3 -6 -6z"/>
<path d="M288 373 c17 -2 47 -2 65 0 17 2 3 4 -33 4 -36 0 -50 -2 -32 -4z"/>
<path d="M4743 373 c26 -2 67 -2 90 0 23 2 2 3 -48 3 -49 0 -68 -1 -42 -3z"/>
<path d="M6640 340 c-8 -5 -10 -10 -5 -10 6 0 17 5 25 10 8 5 11 10 5 10 -5 0
-17 -5 -25 -10z"/>
<path d="M7964 242 c-68 -38 -123 -81 -135 -106 l-10 -21 18 21 c25 29 80 69
144 104 30 16 50 30 44 30 -5 0 -33 -13 -61 -28z"/>
<path d="M6344 224 c-18 -14 -18 -15 4 -4 12 6 22 13 22 15 0 8 -5 6 -26 -11z"/>
</g>
</svg>
