<?xml version="1.0" standalone="no"?>
<!DOCTYPE svg PUBLIC "-//W3C//DTD SVG 20010904//EN"
 "http://www.w3.org/TR/2001/REC-SVG-20010904/DTD/svg10.dtd">
<svg version="1.0" xmlns="http://www.w3.org/2000/svg"
 width="443.000000pt" height="85.000000pt" viewBox="0 0 443.000000 85.000000"
 preserveAspectRatio="xMidYMid meet">

<g transform="translate(0.000000,85.000000) scale(0.100000,-0.100000)"
fill="#000000" stroke="none">
<path d="M3902 717 c-6 -7 -12 -41 -13 -77 -4 -105 -5 -108 -49 -106 -87 2
-156 -137 -102 -204 29 -35 66 -21 104 40 17 28 32 50 34 50 2 0 3 -20 2 -44
-1 -57 7 -69 41 -61 39 10 50 25 18 25 l-27 0 1 88 c0 48 6 133 12 189 10 80
10 104 0 107 -6 3 -16 -1 -21 -7z m-29 -235 c-2 -50 -53 -127 -83 -127 -23 0
-25 4 -28 53 -3 47 0 56 27 83 22 22 38 29 58 27 25 -3 28 -7 26 -36z"/>
<path d="M2536 663 c-3 -32 -8 -116 -11 -188 -8 -157 -1 -176 55 -152 l35 15
-29 1 -29 1 6 148 c4 81 10 166 13 190 6 38 5 42 -14 42 -17 0 -21 -8 -26 -57z"/>
<path d="M2846 648 c-13 -164 -18 -338 -9 -338 16 0 33 23 33 45 0 11 11 43
24 72 26 54 60 83 78 65 16 -16 2 -40 -37 -63 -39 -24 -41 -14 11 -94 18 -28
50 -32 80 -10 18 14 18 14 -11 15 -23 0 -35 8 -54 37 -21 33 -22 37 -6 46 33
18 55 47 55 72 0 57 -66 43 -110 -22 l-32 -48 6 101 c3 55 9 121 12 147 6 43
5 47 -13 47 -18 0 -21 -8 -27 -72z"/>
<path d="M85 650 c-18 -8 -17 -9 8 -9 l28 -1 -2 -161 -1 -161 83 -3 c49 -2 89
1 96 7 7 6 13 27 13 47 l-1 36 -14 -32 c-14 -32 -16 -33 -76 -33 l-61 0 2 148
c2 81 2 153 1 160 -1 14 -46 15 -76 2z"/>
<path d="M2292 558 c-119 -254 -116 -248 -93 -248 14 0 24 16 42 68 l24 67 55
3 55 2 20 -62 c22 -68 39 -84 78 -74 31 7 36 26 7 26 -32 0 -47 37 -77 183
-36 175 -44 178 -111 35z m77 -75 c1 -9 -14 -13 -45 -13 -52 0 -52 -2 -6 98
l25 57 13 -65 c7 -36 13 -71 13 -77z"/>
<path d="M1004 533 c-10 -16 -15 -16 -52 -4 -32 11 -47 11 -70 2 -61 -25 -78
-111 -29 -146 12 -8 16 -15 10 -15 -21 0 -35 -37 -20 -52 12 -10 8 -18 -20
-44 -39 -37 -41 -56 -11 -83 60 -56 185 -22 204 56 9 33 -22 60 -77 69 -46 8
-75 26 -65 42 4 7 16 12 27 12 56 0 105 59 92 109 -4 14 -1 21 9 21 20 0 37
20 31 36 -7 19 -16 18 -29 -3z m-65 -26 c18 -22 24 -73 12 -96 -25 -45 -91
-13 -91 45 0 52 50 85 79 51z m28 -240 c21 -21 10 -61 -22 -75 -77 -35 -148
24 -98 81 14 15 27 18 62 14 23 -3 50 -12 58 -20z"/>
<path d="M689 527 c-13 -7 -36 -35 -52 -62 l-27 -50 6 52 c7 59 -4 71 -54 57
-26 -7 -26 -8 -4 -12 22 -3 23 -6 21 -100 -1 -53 1 -96 5 -94 3 1 10 2 14 2 5
0 14 24 21 53 14 64 56 130 79 125 14 -3 17 -17 19 -81 2 -101 6 -111 41 -102
40 10 51 25 18 25 l-29 0 5 78 c3 42 4 83 1 90 -9 23 -38 31 -64 19z"/>
<path d="M1093 516 c-34 -29 -57 -95 -48 -137 7 -32 48 -69 77 -69 74 0 134
113 96 183 -27 52 -79 61 -125 23z m77 -18 c25 -27 28 -112 4 -146 -48 -69
-118 34 -83 125 18 48 47 56 79 21z"/>
<path d="M1400 521 c5 -11 10 -27 10 -36 0 -24 -50 -126 -59 -120 -5 2 -11 24
-14 47 -4 24 -11 60 -17 81 -9 32 -15 37 -40 37 -16 0 -32 -4 -35 -10 -3 -5 1
-10 9 -10 21 0 31 -23 52 -117 9 -46 21 -83 24 -83 4 0 26 28 49 62 65 97 78
168 31 168 -17 0 -19 -3 -10 -19z"/>
<path d="M1843 532 c-6 -4 -23 -38 -39 -77 -15 -38 -30 -74 -34 -78 -4 -5 -13
15 -20 45 -24 99 -44 121 -97 101 -16 -6 -15 -8 7 -13 22 -5 29 -19 57 -103
l32 -98 -18 -42 c-22 -52 -44 -71 -71 -62 -24 8 -29 -22 -4 -32 37 -14 61 14
109 129 26 62 60 139 76 170 27 53 28 76 2 60z"/>
<path d="M2688 524 c-72 -39 -83 -169 -18 -204 24 -13 75 -7 97 11 20 17 16
31 -6 19 -27 -14 -66 -13 -80 3 -6 8 -14 28 -17 45 -6 30 -4 32 20 32 77 0
130 57 86 92 -27 22 -46 22 -82 2z m57 -25 c9 -27 -10 -47 -54 -55 -32 -7 -33
-6 -26 17 17 55 67 79 80 38z"/>
<path d="M3100 527 c-13 -7 -29 -24 -34 -39 -12 -33 2 -51 56 -79 44 -23 56
-42 38 -64 -17 -21 -46 -19 -70 5 -24 24 -40 26 -40 6 0 -21 39 -46 71 -46 36
0 79 36 79 65 0 24 -23 46 -80 77 -34 19 -37 43 -7 62 19 12 52 -2 52 -23 0
-6 3 -11 8 -11 4 0 12 0 17 0 18 0 11 39 -9 50 -26 13 -50 13 -81 -3z"/>
<path d="M3579 527 c-13 -7 -36 -35 -52 -62 l-27 -50 6 52 c7 59 -4 71 -54 57
-26 -7 -26 -8 -4 -12 22 -3 23 -6 21 -100 -1 -53 1 -96 5 -94 3 1 10 2 14 2 5
0 14 24 21 53 14 64 56 130 79 125 14 -3 17 -17 19 -81 2 -101 6 -111 41 -102
40 10 51 25 18 25 l-29 0 5 78 c3 42 4 83 1 90 -9 23 -38 31 -64 19z"/>
<path d="M3975 525 l-30 -13 28 -1 27 -1 -6 -96 c-7 -91 -6 -96 12 -92 11 2
20 13 22 28 10 84 55 159 87 146 19 -7 32 21 17 36 -19 19 -57 -6 -80 -52
l-21 -43 -3 48 c-3 55 -10 60 -53 40z"/>
<path d="M383 518 c-37 -18 -43 -68 -8 -68 9 0 13 10 12 27 -2 22 3 29 21 31
32 5 52 -15 52 -49 0 -25 -4 -29 -27 -29 -36 0 -89 -33 -98 -60 -8 -26 19 -60
48 -60 10 0 32 14 48 31 24 26 29 28 29 12 0 -40 40 -55 75 -29 18 13 18 14
-7 9 -23 -4 -28 -1 -34 21 -3 15 -3 50 0 78 9 66 -10 98 -57 97 -17 0 -42 -5
-54 -11z m77 -103 c0 -19 -33 -65 -51 -70 -45 -15 -53 40 -9 62 26 13 60 17
60 8z"/>
<path d="M1503 518 c-37 -18 -43 -68 -8 -68 9 0 13 10 12 27 -2 22 3 29 21 31
32 5 52 -15 52 -49 0 -25 -4 -29 -27 -29 -36 0 -89 -33 -98 -60 -8 -26 19 -60
48 -60 10 0 32 14 48 31 24 26 29 28 29 12 0 -40 40 -55 75 -29 18 13 18 14
-7 9 -23 -4 -28 -1 -34 21 -3 15 -3 50 0 78 9 66 -10 98 -57 97 -17 0 -42 -5
-54 -11z m77 -103 c0 -19 -33 -65 -51 -70 -45 -15 -53 40 -9 62 26 13 60 17
60 8z"/>
<path d="M1933 518 c-37 -18 -43 -68 -8 -68 9 0 13 10 12 27 -2 22 3 29 21 31
32 5 52 -15 52 -49 0 -25 -4 -29 -27 -29 -36 0 -89 -33 -98 -60 -8 -26 19 -60
48 -60 10 0 32 14 48 31 24 26 29 28 29 12 0 -40 40 -55 75 -29 18 13 18 14
-7 9 -23 -4 -28 -1 -34 21 -3 15 -3 50 0 78 9 66 -10 98 -57 97 -17 0 -42 -5
-54 -11z m77 -103 c0 -19 -33 -65 -51 -70 -45 -15 -53 40 -9 62 26 13 60 17
60 8z"/>
<path d="M3273 518 c-37 -18 -43 -68 -8 -68 9 0 13 10 12 27 -2 22 3 29 21 31
32 5 52 -15 52 -49 0 -25 -4 -29 -27 -29 -36 0 -89 -33 -98 -60 -8 -26 19 -60
48 -60 10 0 32 14 48 31 24 26 29 28 29 12 0 -40 40 -55 75 -29 18 13 18 14
-7 9 -23 -4 -28 -1 -34 21 -3 15 -3 50 0 78 9 66 -10 98 -57 97 -17 0 -42 -5
-54 -11z m77 -103 c0 -19 -33 -65 -51 -70 -45 -15 -53 40 -9 62 26 13 60 17
60 8z"/>
<path d="M4193 518 c-37 -18 -43 -68 -8 -68 9 0 13 10 12 27 -2 22 3 29 21 31
32 5 52 -15 52 -49 0 -25 -4 -29 -27 -29 -36 0 -89 -33 -98 -60 -8 -26 19 -60
48 -60 10 0 32 14 48 31 24 26 29 28 29 12 0 -40 40 -55 75 -29 18 13 18 14
-7 9 -23 -4 -28 -1 -34 21 -3 15 -3 50 0 78 9 66 -10 98 -57 97 -17 0 -42 -5
-54 -11z m77 -103 c0 -19 -33 -65 -51 -70 -45 -15 -53 40 -9 62 26 13 60 17
60 8z"/>
</g>
</svg>
